<svg xmlns="http://www.w3.org/2000/svg" viewBox="0 0 64 64">
  <defs>
    <linearGradient id="bg" x1="0" x2="0" y1="0" y2="1">
      <stop offset="0%" stop-color="#1f3b73" />
      <stop offset="100%" stop-color="#2e5da8" />
    </linearGradient>
  </defs>
  <rect width="64" height="64" rx="12" fill="url(#bg)" />
  <path d="M20 18h24a2 2 0 0 1 2 2v24a2 2 0 0 1-2 2H20a2 2 0 0 1-2-2V20a2 2 0 0 1 2-2z" fill="#f7f9ff" />
  <path d="M24 18v-2a4 4 0 0 1 4-4h8a4 4 0 0 1 4 4v2" fill="#d7e2ff" />
  <path d="M24 34.5l6 6 10-11" fill="none" stroke="#1f6f43" stroke-linecap="round" stroke-linejoin="round" stroke-width="4" />
  <path d="M24 26h16" stroke="#4a63a7" stroke-linecap="round" stroke-width="3" />
  <path d="M24 30h12" stroke="#4a63a7" stroke-linecap="round" stroke-width="3" />
</svg>
